<mxfile host="Electron" modified="2024-02-18T19:17:33.294Z" agent="Mozilla/5.0 (X11; Linux x86_64) AppleWebKit/537.36 (KHTML, like Gecko) draw.io/23.1.5 Chrome/120.0.6099.109 Electron/28.1.0 Safari/537.36" etag="km0Rm6vhD00tnQPxi9Mi" version="23.1.5" type="device">
  <diagram name="Page-1" id="FnG8-0deIiRr8l6QQMx9">
    <mxGraphModel dx="3624" dy="1899" grid="1" gridSize="10" guides="1" tooltips="1" connect="1" arrows="1" fold="1" page="1" pageScale="1" pageWidth="850" pageHeight="1100" math="0" shadow="0">
      <root>
        <mxCell id="0" />
        <mxCell id="1" parent="0" />
        <mxCell id="Uurb_FAPzoqdF-IuGrbQ-3" value="" style="edgeStyle=orthogonalEdgeStyle;rounded=0;orthogonalLoop=1;jettySize=auto;html=1;exitX=0.5;exitY=1;exitDx=0;exitDy=0;" parent="1" source="Uurb_FAPzoqdF-IuGrbQ-1" target="Uurb_FAPzoqdF-IuGrbQ-2" edge="1">
          <mxGeometry relative="1" as="geometry" />
        </mxCell>
        <mxCell id="Uurb_FAPzoqdF-IuGrbQ-1" value="envs" style="rounded=1;whiteSpace=wrap;html=1;" parent="1" vertex="1">
          <mxGeometry x="1820" y="150" width="120" height="60" as="geometry" />
        </mxCell>
        <mxCell id="JysFIHqqkR7NagjXsvl2-91" value="" style="edgeStyle=orthogonalEdgeStyle;rounded=0;orthogonalLoop=1;jettySize=auto;html=1;" edge="1" parent="1" source="Uurb_FAPzoqdF-IuGrbQ-2" target="JysFIHqqkR7NagjXsvl2-90">
          <mxGeometry relative="1" as="geometry" />
        </mxCell>
        <mxCell id="Uurb_FAPzoqdF-IuGrbQ-2" value="prod" style="whiteSpace=wrap;html=1;rounded=1;" parent="1" vertex="1">
          <mxGeometry x="1820" y="310" width="120" height="60" as="geometry" />
        </mxCell>
        <mxCell id="Uurb_FAPzoqdF-IuGrbQ-7" style="edgeStyle=orthogonalEdgeStyle;rounded=0;orthogonalLoop=1;jettySize=auto;html=1;" parent="1" source="Uurb_FAPzoqdF-IuGrbQ-6" target="Uurb_FAPzoqdF-IuGrbQ-1" edge="1">
          <mxGeometry relative="1" as="geometry" />
        </mxCell>
        <mxCell id="Uurb_FAPzoqdF-IuGrbQ-9" style="edgeStyle=orthogonalEdgeStyle;rounded=0;orthogonalLoop=1;jettySize=auto;html=1;" parent="1" source="Uurb_FAPzoqdF-IuGrbQ-6" target="Uurb_FAPzoqdF-IuGrbQ-8" edge="1">
          <mxGeometry relative="1" as="geometry" />
        </mxCell>
        <mxCell id="Uurb_FAPzoqdF-IuGrbQ-11" style="edgeStyle=orthogonalEdgeStyle;rounded=0;orthogonalLoop=1;jettySize=auto;html=1;exitX=0.5;exitY=1;exitDx=0;exitDy=0;" parent="1" source="Uurb_FAPzoqdF-IuGrbQ-6" target="Uurb_FAPzoqdF-IuGrbQ-10" edge="1">
          <mxGeometry relative="1" as="geometry" />
        </mxCell>
        <mxCell id="Uurb_FAPzoqdF-IuGrbQ-6" value="terraform" style="rounded=1;whiteSpace=wrap;html=1;" parent="1" vertex="1">
          <mxGeometry x="440" y="-220" width="120" height="60" as="geometry" />
        </mxCell>
        <mxCell id="Uurb_FAPzoqdF-IuGrbQ-21" style="edgeStyle=orthogonalEdgeStyle;rounded=0;orthogonalLoop=1;jettySize=auto;html=1;" parent="1" source="Uurb_FAPzoqdF-IuGrbQ-8" target="Uurb_FAPzoqdF-IuGrbQ-20" edge="1">
          <mxGeometry relative="1" as="geometry" />
        </mxCell>
        <mxCell id="Uurb_FAPzoqdF-IuGrbQ-8" value="modules" style="rounded=1;whiteSpace=wrap;html=1;" parent="1" vertex="1">
          <mxGeometry x="-1230" y="10" width="120" height="60" as="geometry" />
        </mxCell>
        <mxCell id="Uurb_FAPzoqdF-IuGrbQ-13" style="edgeStyle=orthogonalEdgeStyle;rounded=0;orthogonalLoop=1;jettySize=auto;html=1;" parent="1" source="Uurb_FAPzoqdF-IuGrbQ-10" target="Uurb_FAPzoqdF-IuGrbQ-12" edge="1">
          <mxGeometry relative="1" as="geometry" />
        </mxCell>
        <mxCell id="Uurb_FAPzoqdF-IuGrbQ-15" style="edgeStyle=orthogonalEdgeStyle;rounded=0;orthogonalLoop=1;jettySize=auto;html=1;" parent="1" source="Uurb_FAPzoqdF-IuGrbQ-10" target="Uurb_FAPzoqdF-IuGrbQ-14" edge="1">
          <mxGeometry relative="1" as="geometry" />
        </mxCell>
        <mxCell id="Uurb_FAPzoqdF-IuGrbQ-10" value="apps" style="rounded=1;whiteSpace=wrap;html=1;" parent="1" vertex="1">
          <mxGeometry x="440" y="40" width="120" height="60" as="geometry" />
        </mxCell>
        <mxCell id="Uurb_FAPzoqdF-IuGrbQ-17" style="edgeStyle=orthogonalEdgeStyle;rounded=0;orthogonalLoop=1;jettySize=auto;html=1;" parent="1" source="Uurb_FAPzoqdF-IuGrbQ-12" target="Uurb_FAPzoqdF-IuGrbQ-16" edge="1">
          <mxGeometry relative="1" as="geometry" />
        </mxCell>
        <mxCell id="Uurb_FAPzoqdF-IuGrbQ-19" style="edgeStyle=orthogonalEdgeStyle;rounded=0;orthogonalLoop=1;jettySize=auto;html=1;exitX=1;exitY=0.5;exitDx=0;exitDy=0;" parent="1" source="Uurb_FAPzoqdF-IuGrbQ-12" target="Uurb_FAPzoqdF-IuGrbQ-18" edge="1">
          <mxGeometry relative="1" as="geometry" />
        </mxCell>
        <mxCell id="Uurb_FAPzoqdF-IuGrbQ-12" value="12 months free" style="rounded=1;whiteSpace=wrap;html=1;" parent="1" vertex="1">
          <mxGeometry x="70" y="170" width="120" height="60" as="geometry" />
        </mxCell>
        <mxCell id="JysFIHqqkR7NagjXsvl2-77" style="edgeStyle=orthogonalEdgeStyle;rounded=0;orthogonalLoop=1;jettySize=auto;html=1;entryX=0.5;entryY=0;entryDx=0;entryDy=0;" edge="1" parent="1" source="Uurb_FAPzoqdF-IuGrbQ-14" target="JysFIHqqkR7NagjXsvl2-74">
          <mxGeometry relative="1" as="geometry" />
        </mxCell>
        <mxCell id="Uurb_FAPzoqdF-IuGrbQ-14" value="always free" style="rounded=1;whiteSpace=wrap;html=1;" parent="1" vertex="1">
          <mxGeometry x="870" y="140" width="120" height="60" as="geometry" />
        </mxCell>
        <mxCell id="JysFIHqqkR7NagjXsvl2-63" style="edgeStyle=orthogonalEdgeStyle;rounded=0;orthogonalLoop=1;jettySize=auto;html=1;entryX=0.5;entryY=0;entryDx=0;entryDy=0;exitX=0;exitY=0.5;exitDx=0;exitDy=0;" edge="1" parent="1" source="Uurb_FAPzoqdF-IuGrbQ-16" target="JysFIHqqkR7NagjXsvl2-42">
          <mxGeometry relative="1" as="geometry" />
        </mxCell>
        <mxCell id="Uurb_FAPzoqdF-IuGrbQ-16" value="passbolt" style="rounded=1;whiteSpace=wrap;html=1;" parent="1" vertex="1">
          <mxGeometry x="-80" y="380" width="120" height="60" as="geometry" />
        </mxCell>
        <mxCell id="JysFIHqqkR7NagjXsvl2-64" style="edgeStyle=orthogonalEdgeStyle;rounded=0;orthogonalLoop=1;jettySize=auto;html=1;entryX=0.5;entryY=0;entryDx=0;entryDy=0;exitX=1;exitY=0.5;exitDx=0;exitDy=0;" edge="1" parent="1" source="Uurb_FAPzoqdF-IuGrbQ-18" target="JysFIHqqkR7NagjXsvl2-56">
          <mxGeometry relative="1" as="geometry" />
        </mxCell>
        <mxCell id="Uurb_FAPzoqdF-IuGrbQ-18" value="vpn" style="rounded=1;whiteSpace=wrap;html=1;" parent="1" vertex="1">
          <mxGeometry x="230" y="380" width="120" height="60" as="geometry" />
        </mxCell>
        <mxCell id="Uurb_FAPzoqdF-IuGrbQ-23" style="edgeStyle=orthogonalEdgeStyle;rounded=0;orthogonalLoop=1;jettySize=auto;html=1;" parent="1" source="Uurb_FAPzoqdF-IuGrbQ-20" target="Uurb_FAPzoqdF-IuGrbQ-22" edge="1">
          <mxGeometry relative="1" as="geometry" />
        </mxCell>
        <mxCell id="Uurb_FAPzoqdF-IuGrbQ-25" style="edgeStyle=orthogonalEdgeStyle;rounded=0;orthogonalLoop=1;jettySize=auto;html=1;entryX=0.575;entryY=0.017;entryDx=0;entryDy=0;exitX=1;exitY=0.5;exitDx=0;exitDy=0;entryPerimeter=0;" parent="1" source="Uurb_FAPzoqdF-IuGrbQ-20" target="Uurb_FAPzoqdF-IuGrbQ-24" edge="1">
          <mxGeometry relative="1" as="geometry">
            <mxPoint x="-507.5" y="170" as="sourcePoint" />
            <mxPoint x="-462.5" y="270" as="targetPoint" />
          </mxGeometry>
        </mxCell>
        <mxCell id="Uurb_FAPzoqdF-IuGrbQ-20" value="aws" style="rounded=1;whiteSpace=wrap;html=1;" parent="1" vertex="1">
          <mxGeometry x="-1230" y="190" width="120" height="60" as="geometry" />
        </mxCell>
        <mxCell id="JysFIHqqkR7NagjXsvl2-17" style="edgeStyle=orthogonalEdgeStyle;rounded=0;orthogonalLoop=1;jettySize=auto;html=1;entryX=0.515;entryY=0.002;entryDx=0;entryDy=0;exitX=0;exitY=0.5;exitDx=0;exitDy=0;entryPerimeter=0;" edge="1" parent="1" source="Uurb_FAPzoqdF-IuGrbQ-22" target="JysFIHqqkR7NagjXsvl2-12">
          <mxGeometry relative="1" as="geometry">
            <mxPoint x="-854.9411764705881" y="300" as="sourcePoint" />
            <mxPoint x="-1080" y="460" as="targetPoint" />
          </mxGeometry>
        </mxCell>
        <mxCell id="Uurb_FAPzoqdF-IuGrbQ-22" value="lambda" style="rounded=1;whiteSpace=wrap;html=1;" parent="1" vertex="1">
          <mxGeometry x="-1410" y="330" width="120" height="60" as="geometry" />
        </mxCell>
        <mxCell id="JysFIHqqkR7NagjXsvl2-34" style="edgeStyle=orthogonalEdgeStyle;rounded=0;orthogonalLoop=1;jettySize=auto;html=1;entryX=0.5;entryY=0;entryDx=0;entryDy=0;exitX=1;exitY=0.5;exitDx=0;exitDy=0;" edge="1" parent="1" source="Uurb_FAPzoqdF-IuGrbQ-24" target="JysFIHqqkR7NagjXsvl2-25">
          <mxGeometry relative="1" as="geometry" />
        </mxCell>
        <mxCell id="Uurb_FAPzoqdF-IuGrbQ-24" value="s3" style="rounded=1;whiteSpace=wrap;html=1;" parent="1" vertex="1">
          <mxGeometry x="-1070" y="330" width="120" height="60" as="geometry" />
        </mxCell>
        <mxCell id="JysFIHqqkR7NagjXsvl2-16" value="" style="group" vertex="1" connectable="0" parent="1">
          <mxGeometry x="-1790" y="670" width="530" height="510" as="geometry" />
        </mxCell>
        <mxCell id="JysFIHqqkR7NagjXsvl2-5" value="" style="group" vertex="1" connectable="0" parent="JysFIHqqkR7NagjXsvl2-16">
          <mxGeometry x="45" y="30" width="200" height="450" as="geometry" />
        </mxCell>
        <mxCell id="JysFIHqqkR7NagjXsvl2-4" value="&lt;font style=&quot;font-size: 14px;&quot; color=&quot;#171717&quot;&gt;Common files for every resource type&lt;/font&gt;" style="sketch=0;points=[[0,0,0],[0.25,0,0],[0.5,0,0],[0.75,0,0],[1,0,0],[1,0.25,0],[1,0.5,0],[1,0.75,0],[1,1,0],[0.75,1,0],[0.5,1,0],[0.25,1,0],[0,1,0],[0,0.75,0],[0,0.5,0],[0,0.25,0]];rounded=1;absoluteArcSize=1;arcSize=2;html=1;strokeColor=none;gradientColor=none;shadow=0;dashed=0;fontSize=12;fontColor=#9E9E9E;align=center;verticalAlign=top;spacing=10;spacingTop=-4;whiteSpace=wrap;fillColor=#EFEBE9;" vertex="1" parent="JysFIHqqkR7NagjXsvl2-5">
          <mxGeometry width="200" height="450" as="geometry" />
        </mxCell>
        <mxCell id="Uurb_FAPzoqdF-IuGrbQ-26" value="outputs.tf" style="rounded=1;whiteSpace=wrap;html=1;" parent="JysFIHqqkR7NagjXsvl2-5" vertex="1">
          <mxGeometry x="40" y="160" width="120" height="60" as="geometry" />
        </mxCell>
        <mxCell id="Uurb_FAPzoqdF-IuGrbQ-27" value="provider.tf" style="whiteSpace=wrap;html=1;rounded=1;" parent="JysFIHqqkR7NagjXsvl2-5" vertex="1">
          <mxGeometry x="40" y="70" width="120" height="60" as="geometry" />
        </mxCell>
        <mxCell id="Uurb_FAPzoqdF-IuGrbQ-29" value="variables.tf" style="whiteSpace=wrap;html=1;rounded=1;" parent="JysFIHqqkR7NagjXsvl2-5" vertex="1">
          <mxGeometry x="40" y="240" width="120" height="60" as="geometry" />
        </mxCell>
        <mxCell id="Uurb_FAPzoqdF-IuGrbQ-31" value="env.tfvars" style="whiteSpace=wrap;html=1;rounded=1;" parent="JysFIHqqkR7NagjXsvl2-5" vertex="1">
          <mxGeometry x="40" y="320" width="120" height="60" as="geometry" />
        </mxCell>
        <mxCell id="JysFIHqqkR7NagjXsvl2-12" value="" style="rounded=1;arcSize=10;dashed=1;strokeColor=#F59D56;fillColor=none;gradientColor=none;dashPattern=8 4;strokeWidth=2;" vertex="1" parent="JysFIHqqkR7NagjXsvl2-16">
          <mxGeometry width="530" height="510" as="geometry" />
        </mxCell>
        <mxCell id="JysFIHqqkR7NagjXsvl2-13" value="" style="group" vertex="1" connectable="0" parent="JysFIHqqkR7NagjXsvl2-16">
          <mxGeometry x="285" y="30" width="200" height="400" as="geometry" />
        </mxCell>
        <mxCell id="JysFIHqqkR7NagjXsvl2-11" value="&lt;font color=&quot;#000000&quot; style=&quot;font-size: 14px;&quot;&gt;Resource specific&lt;/font&gt;" style="sketch=0;points=[[0,0,0],[0.25,0,0],[0.5,0,0],[0.75,0,0],[1,0,0],[1,0.25,0],[1,0.5,0],[1,0.75,0],[1,1,0],[0.75,1,0],[0.5,1,0],[0.25,1,0],[0,1,0],[0,0.75,0],[0,0.5,0],[0,0.25,0]];rounded=1;absoluteArcSize=1;arcSize=2;html=1;strokeColor=none;gradientColor=none;shadow=0;dashed=0;fontSize=12;fontColor=#9E9E9E;align=center;verticalAlign=top;spacing=10;spacingTop=-4;whiteSpace=wrap;fillColor=#F3E5F5;" vertex="1" parent="JysFIHqqkR7NagjXsvl2-13">
          <mxGeometry width="200" height="400" as="geometry" />
        </mxCell>
        <mxCell id="JysFIHqqkR7NagjXsvl2-1" value="lambda_function.tf" style="rounded=1;whiteSpace=wrap;html=1;" vertex="1" parent="JysFIHqqkR7NagjXsvl2-13">
          <mxGeometry x="40" y="60" width="120" height="60" as="geometry" />
        </mxCell>
        <mxCell id="JysFIHqqkR7NagjXsvl2-2" value="iam_role_function.tf" style="whiteSpace=wrap;html=1;rounded=1;" vertex="1" parent="JysFIHqqkR7NagjXsvl2-13">
          <mxGeometry x="40" y="140" width="120" height="60" as="geometry" />
        </mxCell>
        <mxCell id="JysFIHqqkR7NagjXsvl2-6" value="iam_policy_document.tf" style="whiteSpace=wrap;html=1;rounded=1;" vertex="1" parent="JysFIHqqkR7NagjXsvl2-13">
          <mxGeometry x="25" y="230" width="150" height="60" as="geometry" />
        </mxCell>
        <mxCell id="JysFIHqqkR7NagjXsvl2-8" value="archive_file.tf" style="whiteSpace=wrap;html=1;rounded=1;" vertex="1" parent="JysFIHqqkR7NagjXsvl2-13">
          <mxGeometry x="40" y="320" width="120" height="60" as="geometry" />
        </mxCell>
        <mxCell id="JysFIHqqkR7NagjXsvl2-18" value="" style="group" vertex="1" connectable="0" parent="1">
          <mxGeometry x="-1130" y="660" width="530" height="510" as="geometry" />
        </mxCell>
        <mxCell id="JysFIHqqkR7NagjXsvl2-19" value="" style="group" vertex="1" connectable="0" parent="JysFIHqqkR7NagjXsvl2-18">
          <mxGeometry x="45" y="30" width="200" height="450" as="geometry" />
        </mxCell>
        <mxCell id="JysFIHqqkR7NagjXsvl2-20" value="&lt;font style=&quot;font-size: 14px;&quot; color=&quot;#171717&quot;&gt;Common files for every resource type&lt;/font&gt;" style="sketch=0;points=[[0,0,0],[0.25,0,0],[0.5,0,0],[0.75,0,0],[1,0,0],[1,0.25,0],[1,0.5,0],[1,0.75,0],[1,1,0],[0.75,1,0],[0.5,1,0],[0.25,1,0],[0,1,0],[0,0.75,0],[0,0.5,0],[0,0.25,0]];rounded=1;absoluteArcSize=1;arcSize=2;html=1;strokeColor=none;gradientColor=none;shadow=0;dashed=0;fontSize=12;fontColor=#9E9E9E;align=center;verticalAlign=top;spacing=10;spacingTop=-4;whiteSpace=wrap;fillColor=#EFEBE9;" vertex="1" parent="JysFIHqqkR7NagjXsvl2-19">
          <mxGeometry width="200" height="450" as="geometry" />
        </mxCell>
        <mxCell id="JysFIHqqkR7NagjXsvl2-21" value="outputs.tf" style="rounded=1;whiteSpace=wrap;html=1;" vertex="1" parent="JysFIHqqkR7NagjXsvl2-19">
          <mxGeometry x="40" y="160" width="120" height="60" as="geometry" />
        </mxCell>
        <mxCell id="JysFIHqqkR7NagjXsvl2-22" value="provider.tf" style="whiteSpace=wrap;html=1;rounded=1;" vertex="1" parent="JysFIHqqkR7NagjXsvl2-19">
          <mxGeometry x="40" y="70" width="120" height="60" as="geometry" />
        </mxCell>
        <mxCell id="JysFIHqqkR7NagjXsvl2-23" value="variables.tf" style="whiteSpace=wrap;html=1;rounded=1;" vertex="1" parent="JysFIHqqkR7NagjXsvl2-19">
          <mxGeometry x="40" y="240" width="120" height="60" as="geometry" />
        </mxCell>
        <mxCell id="JysFIHqqkR7NagjXsvl2-24" value="env.tfvars" style="whiteSpace=wrap;html=1;rounded=1;" vertex="1" parent="JysFIHqqkR7NagjXsvl2-19">
          <mxGeometry x="40" y="320" width="120" height="60" as="geometry" />
        </mxCell>
        <mxCell id="JysFIHqqkR7NagjXsvl2-25" value="" style="rounded=1;arcSize=10;dashed=1;strokeColor=#F59D56;fillColor=none;gradientColor=none;dashPattern=8 4;strokeWidth=2;" vertex="1" parent="JysFIHqqkR7NagjXsvl2-18">
          <mxGeometry width="530" height="510" as="geometry" />
        </mxCell>
        <mxCell id="JysFIHqqkR7NagjXsvl2-68" value="" style="group" vertex="1" connectable="0" parent="JysFIHqqkR7NagjXsvl2-18">
          <mxGeometry x="300" y="120" width="200" height="220" as="geometry" />
        </mxCell>
        <mxCell id="JysFIHqqkR7NagjXsvl2-27" value="&lt;font color=&quot;#000000&quot; style=&quot;font-size: 14px;&quot;&gt;Resource specific&lt;/font&gt;" style="sketch=0;points=[[0,0,0],[0.25,0,0],[0.5,0,0],[0.75,0,0],[1,0,0],[1,0.25,0],[1,0.5,0],[1,0.75,0],[1,1,0],[0.75,1,0],[0.5,1,0],[0.25,1,0],[0,1,0],[0,0.75,0],[0,0.5,0],[0,0.25,0]];rounded=1;absoluteArcSize=1;arcSize=2;html=1;strokeColor=none;gradientColor=none;shadow=0;dashed=0;fontSize=12;fontColor=#9E9E9E;align=center;verticalAlign=top;spacing=10;spacingTop=-4;whiteSpace=wrap;fillColor=#F3E5F5;" vertex="1" parent="JysFIHqqkR7NagjXsvl2-68">
          <mxGeometry width="200" height="220" as="geometry" />
        </mxCell>
        <mxCell id="JysFIHqqkR7NagjXsvl2-28" value="lifecycle_rule.tf" style="rounded=1;whiteSpace=wrap;html=1;" vertex="1" parent="JysFIHqqkR7NagjXsvl2-68">
          <mxGeometry x="40" y="33" width="120" height="33" as="geometry" />
        </mxCell>
        <mxCell id="JysFIHqqkR7NagjXsvl2-29" value="s3_bucket.tf" style="whiteSpace=wrap;html=1;rounded=1;" vertex="1" parent="JysFIHqqkR7NagjXsvl2-68">
          <mxGeometry x="40" y="77" width="120" height="33" as="geometry" />
        </mxCell>
        <mxCell id="JysFIHqqkR7NagjXsvl2-30" value="iam_policy_document.tf" style="whiteSpace=wrap;html=1;rounded=1;" vertex="1" parent="JysFIHqqkR7NagjXsvl2-68">
          <mxGeometry x="25" y="126.5" width="150" height="33" as="geometry" />
        </mxCell>
        <mxCell id="JysFIHqqkR7NagjXsvl2-49" value="" style="group" vertex="1" connectable="0" parent="1">
          <mxGeometry x="150" y="660" width="530" height="510" as="geometry" />
        </mxCell>
        <mxCell id="JysFIHqqkR7NagjXsvl2-50" value="" style="group" vertex="1" connectable="0" parent="JysFIHqqkR7NagjXsvl2-49">
          <mxGeometry x="45" y="30" width="200" height="450" as="geometry" />
        </mxCell>
        <mxCell id="JysFIHqqkR7NagjXsvl2-51" value="&lt;font style=&quot;font-size: 14px;&quot; color=&quot;#171717&quot;&gt;Common files for every resource type&lt;/font&gt;" style="sketch=0;points=[[0,0,0],[0.25,0,0],[0.5,0,0],[0.75,0,0],[1,0,0],[1,0.25,0],[1,0.5,0],[1,0.75,0],[1,1,0],[0.75,1,0],[0.5,1,0],[0.25,1,0],[0,1,0],[0,0.75,0],[0,0.5,0],[0,0.25,0]];rounded=1;absoluteArcSize=1;arcSize=2;html=1;strokeColor=none;gradientColor=none;shadow=0;dashed=0;fontSize=12;fontColor=#9E9E9E;align=center;verticalAlign=top;spacing=10;spacingTop=-4;whiteSpace=wrap;fillColor=#EFEBE9;" vertex="1" parent="JysFIHqqkR7NagjXsvl2-50">
          <mxGeometry width="200" height="450" as="geometry" />
        </mxCell>
        <mxCell id="JysFIHqqkR7NagjXsvl2-52" value="outputs.tf" style="rounded=1;whiteSpace=wrap;html=1;" vertex="1" parent="JysFIHqqkR7NagjXsvl2-50">
          <mxGeometry x="40" y="160" width="120" height="60" as="geometry" />
        </mxCell>
        <mxCell id="JysFIHqqkR7NagjXsvl2-53" value="provider.tf" style="whiteSpace=wrap;html=1;rounded=1;" vertex="1" parent="JysFIHqqkR7NagjXsvl2-50">
          <mxGeometry x="40" y="70" width="120" height="60" as="geometry" />
        </mxCell>
        <mxCell id="JysFIHqqkR7NagjXsvl2-54" value="variables.tf" style="whiteSpace=wrap;html=1;rounded=1;" vertex="1" parent="JysFIHqqkR7NagjXsvl2-50">
          <mxGeometry x="40" y="240" width="120" height="60" as="geometry" />
        </mxCell>
        <mxCell id="JysFIHqqkR7NagjXsvl2-55" value="env.tfvars" style="whiteSpace=wrap;html=1;rounded=1;" vertex="1" parent="JysFIHqqkR7NagjXsvl2-50">
          <mxGeometry x="40" y="320" width="120" height="60" as="geometry" />
        </mxCell>
        <mxCell id="JysFIHqqkR7NagjXsvl2-56" value="" style="rounded=1;arcSize=10;dashed=1;strokeColor=#F59D56;fillColor=none;gradientColor=none;dashPattern=8 4;strokeWidth=2;" vertex="1" parent="JysFIHqqkR7NagjXsvl2-49">
          <mxGeometry width="530" height="510" as="geometry" />
        </mxCell>
        <mxCell id="JysFIHqqkR7NagjXsvl2-70" value="" style="group" vertex="1" connectable="0" parent="JysFIHqqkR7NagjXsvl2-49">
          <mxGeometry x="280" y="120" width="200" height="260" as="geometry" />
        </mxCell>
        <mxCell id="JysFIHqqkR7NagjXsvl2-71" value="&lt;font color=&quot;#000000&quot; style=&quot;font-size: 14px;&quot;&gt;App specific modules&lt;/font&gt;" style="sketch=0;points=[[0,0,0],[0.25,0,0],[0.5,0,0],[0.75,0,0],[1,0,0],[1,0.25,0],[1,0.5,0],[1,0.75,0],[1,1,0],[0.75,1,0],[0.5,1,0],[0.25,1,0],[0,1,0],[0,0.75,0],[0,0.5,0],[0,0.25,0]];rounded=1;absoluteArcSize=1;arcSize=2;html=1;strokeColor=none;gradientColor=none;shadow=0;dashed=0;fontSize=12;fontColor=#9E9E9E;align=center;verticalAlign=top;spacing=10;spacingTop=-4;whiteSpace=wrap;fillColor=#F3E5F5;movable=1;resizable=1;rotatable=1;deletable=1;editable=1;locked=0;connectable=1;container=0;" vertex="1" parent="JysFIHqqkR7NagjXsvl2-70">
          <mxGeometry width="200" height="260" as="geometry" />
        </mxCell>
        <mxCell id="JysFIHqqkR7NagjXsvl2-72" value="modules/aws/lambda.tf" style="rounded=1;whiteSpace=wrap;html=1;movable=1;resizable=1;rotatable=1;deletable=1;editable=1;locked=0;connectable=1;container=0;" vertex="1" parent="JysFIHqqkR7NagjXsvl2-70">
          <mxGeometry x="35" y="60" width="145" height="60" as="geometry" />
        </mxCell>
        <mxCell id="JysFIHqqkR7NagjXsvl2-73" value="modules/aws/s3.tf" style="whiteSpace=wrap;html=1;rounded=1;movable=1;resizable=1;rotatable=1;deletable=1;editable=1;locked=0;connectable=1;container=0;" vertex="1" parent="JysFIHqqkR7NagjXsvl2-70">
          <mxGeometry x="40" y="140" width="120" height="60" as="geometry" />
        </mxCell>
        <mxCell id="JysFIHqqkR7NagjXsvl2-42" value="" style="rounded=1;arcSize=10;dashed=1;strokeColor=#F59D56;fillColor=none;gradientColor=none;dashPattern=8 4;strokeWidth=2;movable=1;resizable=1;rotatable=1;deletable=1;editable=1;locked=0;connectable=1;container=0;" vertex="1" parent="1">
          <mxGeometry x="-450" y="660" width="530" height="510" as="geometry" />
        </mxCell>
        <mxCell id="JysFIHqqkR7NagjXsvl2-37" value="&lt;font style=&quot;font-size: 14px;&quot; color=&quot;#171717&quot;&gt;Common files for every resource type&lt;/font&gt;" style="sketch=0;points=[[0,0,0],[0.25,0,0],[0.5,0,0],[0.75,0,0],[1,0,0],[1,0.25,0],[1,0.5,0],[1,0.75,0],[1,1,0],[0.75,1,0],[0.5,1,0],[0.25,1,0],[0,1,0],[0,0.75,0],[0,0.5,0],[0,0.25,0]];rounded=1;absoluteArcSize=1;arcSize=2;html=1;strokeColor=none;gradientColor=none;shadow=0;dashed=0;fontSize=12;fontColor=#9E9E9E;align=center;verticalAlign=top;spacing=10;spacingTop=-4;whiteSpace=wrap;fillColor=#EFEBE9;movable=1;resizable=1;rotatable=1;deletable=1;editable=1;locked=0;connectable=1;container=0;" vertex="1" parent="1">
          <mxGeometry x="-405" y="690" width="200" height="450" as="geometry" />
        </mxCell>
        <mxCell id="JysFIHqqkR7NagjXsvl2-38" value="outputs.tf" style="rounded=1;whiteSpace=wrap;html=1;movable=1;resizable=1;rotatable=1;deletable=1;editable=1;locked=0;connectable=1;container=0;" vertex="1" parent="1">
          <mxGeometry x="-365" y="900" width="120" height="60" as="geometry" />
        </mxCell>
        <mxCell id="JysFIHqqkR7NagjXsvl2-39" value="provider.tf" style="whiteSpace=wrap;html=1;rounded=1;movable=1;resizable=1;rotatable=1;deletable=1;editable=1;locked=0;connectable=1;container=0;" vertex="1" parent="1">
          <mxGeometry x="-365" y="820" width="120" height="60" as="geometry" />
        </mxCell>
        <mxCell id="JysFIHqqkR7NagjXsvl2-40" value="variables.tf" style="whiteSpace=wrap;html=1;rounded=1;movable=1;resizable=1;rotatable=1;deletable=1;editable=1;locked=0;connectable=1;container=0;" vertex="1" parent="1">
          <mxGeometry x="-365" y="980" width="120" height="60" as="geometry" />
        </mxCell>
        <mxCell id="JysFIHqqkR7NagjXsvl2-41" value="env.tfvars" style="whiteSpace=wrap;html=1;rounded=1;movable=1;resizable=1;rotatable=1;deletable=1;editable=1;locked=0;connectable=1;container=0;" vertex="1" parent="1">
          <mxGeometry x="-365" y="1060" width="120" height="60" as="geometry" />
        </mxCell>
        <mxCell id="JysFIHqqkR7NagjXsvl2-65" value="main.tf" style="whiteSpace=wrap;html=1;rounded=1;movable=1;resizable=1;rotatable=1;deletable=1;editable=1;locked=0;connectable=1;container=0;" vertex="1" parent="1">
          <mxGeometry x="-365" y="750" width="120" height="60" as="geometry" />
        </mxCell>
        <mxCell id="JysFIHqqkR7NagjXsvl2-69" value="" style="group" vertex="1" connectable="0" parent="1">
          <mxGeometry x="-160" y="760" width="200" height="260" as="geometry" />
        </mxCell>
        <mxCell id="JysFIHqqkR7NagjXsvl2-44" value="&lt;font color=&quot;#000000&quot; style=&quot;font-size: 14px;&quot;&gt;App specific modules&lt;/font&gt;" style="sketch=0;points=[[0,0,0],[0.25,0,0],[0.5,0,0],[0.75,0,0],[1,0,0],[1,0.25,0],[1,0.5,0],[1,0.75,0],[1,1,0],[0.75,1,0],[0.5,1,0],[0.25,1,0],[0,1,0],[0,0.75,0],[0,0.5,0],[0,0.25,0]];rounded=1;absoluteArcSize=1;arcSize=2;html=1;strokeColor=none;gradientColor=none;shadow=0;dashed=0;fontSize=12;fontColor=#9E9E9E;align=center;verticalAlign=top;spacing=10;spacingTop=-4;whiteSpace=wrap;fillColor=#F3E5F5;movable=1;resizable=1;rotatable=1;deletable=1;editable=1;locked=0;connectable=1;container=0;" vertex="1" parent="JysFIHqqkR7NagjXsvl2-69">
          <mxGeometry width="200" height="260" as="geometry" />
        </mxCell>
        <mxCell id="JysFIHqqkR7NagjXsvl2-45" value="modules/aws/lambda.tf" style="rounded=1;whiteSpace=wrap;html=1;movable=1;resizable=1;rotatable=1;deletable=1;editable=1;locked=0;connectable=1;container=0;" vertex="1" parent="JysFIHqqkR7NagjXsvl2-69">
          <mxGeometry x="35" y="60" width="145" height="60" as="geometry" />
        </mxCell>
        <mxCell id="JysFIHqqkR7NagjXsvl2-46" value="modules/aws/s3.tf" style="whiteSpace=wrap;html=1;rounded=1;movable=1;resizable=1;rotatable=1;deletable=1;editable=1;locked=0;connectable=1;container=0;" vertex="1" parent="JysFIHqqkR7NagjXsvl2-69">
          <mxGeometry x="40" y="140" width="120" height="60" as="geometry" />
        </mxCell>
        <mxCell id="JysFIHqqkR7NagjXsvl2-74" value="Sendgrid" style="rounded=1;whiteSpace=wrap;html=1;" vertex="1" parent="1">
          <mxGeometry x="870" y="370" width="120" height="60" as="geometry" />
        </mxCell>
        <mxCell id="JysFIHqqkR7NagjXsvl2-93" value="" style="edgeStyle=orthogonalEdgeStyle;rounded=0;orthogonalLoop=1;jettySize=auto;html=1;" edge="1" parent="1" source="JysFIHqqkR7NagjXsvl2-90" target="JysFIHqqkR7NagjXsvl2-92">
          <mxGeometry relative="1" as="geometry" />
        </mxCell>
        <mxCell id="JysFIHqqkR7NagjXsvl2-90" value="app" style="whiteSpace=wrap;html=1;rounded=1;" vertex="1" parent="1">
          <mxGeometry x="1820" y="450" width="120" height="60" as="geometry" />
        </mxCell>
        <mxCell id="JysFIHqqkR7NagjXsvl2-95" value="" style="edgeStyle=orthogonalEdgeStyle;rounded=0;orthogonalLoop=1;jettySize=auto;html=1;" edge="1" parent="1" source="JysFIHqqkR7NagjXsvl2-92" target="JysFIHqqkR7NagjXsvl2-94">
          <mxGeometry relative="1" as="geometry" />
        </mxCell>
        <mxCell id="JysFIHqqkR7NagjXsvl2-92" value="12_months_free" style="whiteSpace=wrap;html=1;rounded=1;" vertex="1" parent="1">
          <mxGeometry x="1820" y="590" width="120" height="60" as="geometry" />
        </mxCell>
        <mxCell id="JysFIHqqkR7NagjXsvl2-98" style="edgeStyle=orthogonalEdgeStyle;rounded=0;orthogonalLoop=1;jettySize=auto;html=1;entryX=0.5;entryY=0;entryDx=0;entryDy=0;" edge="1" parent="1" source="JysFIHqqkR7NagjXsvl2-94" target="JysFIHqqkR7NagjXsvl2-85">
          <mxGeometry relative="1" as="geometry" />
        </mxCell>
        <mxCell id="JysFIHqqkR7NagjXsvl2-94" value="passbolt" style="whiteSpace=wrap;html=1;rounded=1;" vertex="1" parent="1">
          <mxGeometry x="1820" y="730" width="120" height="60" as="geometry" />
        </mxCell>
        <mxCell id="JysFIHqqkR7NagjXsvl2-96" value="" style="group" vertex="1" connectable="0" parent="1">
          <mxGeometry x="1750" y="870" width="260" height="360" as="geometry" />
        </mxCell>
        <mxCell id="JysFIHqqkR7NagjXsvl2-85" value="" style="rounded=1;arcSize=10;dashed=1;strokeColor=#F59D56;fillColor=none;gradientColor=none;dashPattern=8 4;strokeWidth=2;container=0;" vertex="1" parent="JysFIHqqkR7NagjXsvl2-96">
          <mxGeometry width="260" height="360" as="geometry" />
        </mxCell>
        <mxCell id="JysFIHqqkR7NagjXsvl2-80" value="&lt;font style=&quot;font-size: 14px;&quot; color=&quot;#171717&quot;&gt;Common files for every resource type&lt;/font&gt;" style="sketch=0;points=[[0,0,0],[0.25,0,0],[0.5,0,0],[0.75,0,0],[1,0,0],[1,0.25,0],[1,0.5,0],[1,0.75,0],[1,1,0],[0.75,1,0],[0.5,1,0],[0.25,1,0],[0,1,0],[0,0.75,0],[0,0.5,0],[0,0.25,0]];rounded=1;absoluteArcSize=1;arcSize=2;html=1;strokeColor=none;gradientColor=none;shadow=0;dashed=0;fontSize=12;fontColor=#9E9E9E;align=center;verticalAlign=top;spacing=10;spacingTop=-4;whiteSpace=wrap;fillColor=#EFEBE9;container=0;" vertex="1" parent="JysFIHqqkR7NagjXsvl2-96">
          <mxGeometry x="25" y="10" width="200" height="340" as="geometry" />
        </mxCell>
        <mxCell id="JysFIHqqkR7NagjXsvl2-81" value="variables.tf" style="rounded=1;whiteSpace=wrap;html=1;container=0;" vertex="1" parent="JysFIHqqkR7NagjXsvl2-96">
          <mxGeometry x="65" y="170" width="120" height="60" as="geometry" />
        </mxCell>
        <mxCell id="JysFIHqqkR7NagjXsvl2-82" value="env.tfvars" style="whiteSpace=wrap;html=1;rounded=1;container=0;" vertex="1" parent="JysFIHqqkR7NagjXsvl2-96">
          <mxGeometry x="65" y="80" width="120" height="60" as="geometry" />
        </mxCell>
        <mxCell id="JysFIHqqkR7NagjXsvl2-83" value="global_variables.tf" style="whiteSpace=wrap;html=1;rounded=1;container=0;fillColor=#c7c7c7;" vertex="1" parent="JysFIHqqkR7NagjXsvl2-96">
          <mxGeometry x="65" y="250" width="120" height="60" as="geometry" />
        </mxCell>
      </root>
    </mxGraphModel>
  </diagram>
</mxfile>
